<?xml version="1.0" standalone="no"?><!DOCTYPE svg PUBLIC "-//W3C//DTD SVG 1.1//EN" "http://www.w3.org/Graphics/SVG/1.1/DTD/svg11.dtd"><svg t="1501144239724" class="icon" style="" viewBox="0 0 1024 1024" version="1.1" xmlns="http://www.w3.org/2000/svg" p-id="2599" xmlns:xlink="http://www.w3.org/1999/xlink" width="200" height="200"><defs><style type="text/css"></style></defs><path d="M714.56 248.768a40.32 40.32 0 0 0-57.024 6.272 40.64 40.64 0 0 0 6.272 57.216 243.264 243.264 0 0 1 91.072 190.144 242.368 242.368 0 0 1-71.168 172.224A240.64 240.64 0 0 1 512 745.984a240.832 240.832 0 0 1-171.584-71.296 242.304 242.304 0 0 1-71.168-172.16A243.2 243.2 0 0 1 360.256 312.32a40.448 40.448 0 0 0 6.336-57.216 40.32 40.32 0 0 0-57.024-6.272 326.016 326.016 0 0 0-88.448 110.592 321.984 321.984 0 0 0-33.024 143.104c0 86.784 33.728 168.384 94.848 229.76A321.536 321.536 0 0 0 512 827.456a321.28 321.28 0 0 0 229.056-95.168 323.072 323.072 0 0 0 94.848-229.824 323.584 323.584 0 0 0-121.344-253.696z" fill="#0050b4" p-id="2600"></path><path d="M510.72 560.32c22.4 0 42.56-14.336 42.56-36.8V217.6c0-22.464-20.096-43.264-42.56-43.264-22.272 0-38.656 20.544-38.656 43.008v305.984c0.064 22.4 16.384 36.992 38.656 36.992z" fill="#0050b4" p-id="2601"></path><path d="M512 1003.904c-274.944 0-498.624-223.68-498.624-498.624S237.056 6.656 512 6.656s498.624 223.68 498.624 498.624S786.944 1003.904 512 1003.904zM512 38.272C254.528 38.272 44.992 247.808 44.992 505.28c0 257.536 209.536 467.008 467.008 467.008 257.536 0 467.072-209.472 467.072-467.008C979.072 247.808 769.536 38.272 512 38.272z" fill="#0050b4" p-id="2602"></path></svg>