<?xml version="1.0" standalone="no"?><!DOCTYPE svg PUBLIC "-//W3C//DTD SVG 1.1//EN" "http://www.w3.org/Graphics/SVG/1.1/DTD/svg11.dtd"><svg t="1513921414246" class="icon" style="" viewBox="0 0 1024 1024" version="1.1" xmlns="http://www.w3.org/2000/svg" p-id="11386" xmlns:xlink="http://www.w3.org/1999/xlink" width="200" height="200"><defs><style type="text/css"></style></defs><path d="M512 0C229.23264 0 0 229.23264 0 512s229.23264 512 512 512 512-229.23264 512-512S794.76736 0 512 0z m0 1003.52C240.96768 1003.52 20.48 783.03232 20.48 512S240.96768 20.48 512 20.48s491.52 220.48768 491.52 491.52-220.48768 491.52-491.52 491.52z" fill="#ffffff" p-id="11387"></path><path d="M638.70976 328.02816a15.36 15.36 0 1 0-16.91648 25.64096A199.68 199.68 0 0 1 512 720.15872a199.68 199.68 0 0 1-199.68-199.68 199.0656 199.0656 0 0 1 61.62432-144.2816 199.31136 199.31136 0 0 1 29.71648-23.49056 15.36 15.36 0 1 0-16.6912-25.78432 231.2192 231.2192 0 0 0-34.26304 27.09504 229.70368 229.70368 0 0 0-71.10656 166.46144c0 127.24224 103.15776 230.4 230.4 230.4s230.4-103.15776 230.4-230.4a230.1952 230.1952 0 0 0-103.69024-192.45056z" fill="#ffffff" p-id="11388"></path><path d="M512 436.9408a15.36 15.36 0 0 0 15.36-15.36v-133.12a15.36 15.36 0 0 0-30.72 0v133.12c0 8.47872 6.88128 15.36 15.36 15.36z" fill="#ffffff" p-id="11389"></path></svg>