<?xml version="1.0" standalone="no"?><!DOCTYPE svg PUBLIC "-//W3C//DTD SVG 1.1//EN" "http://www.w3.org/Graphics/SVG/1.1/DTD/svg11.dtd"><svg t="1513921421292" class="icon" style="" viewBox="0 0 1024 1024" version="1.1" xmlns="http://www.w3.org/2000/svg" p-id="11610" xmlns:xlink="http://www.w3.org/1999/xlink" width="200" height="200"><defs><style type="text/css"></style></defs><path d="M521.54368 392.84736v106.37312l77.9264 80.46592a15.36 15.36 0 0 1-22.07744 21.36064l-82.2272-84.91008a15.36 15.36 0 0 1-4.34176-10.69056v-112.59904a15.36 15.36 0 0 1 30.72 0zM506.88 266.24a15.36 15.36 0 1 1 0 30.72c-115.9168 0-209.92 94.0032-209.92 209.92S390.9632 716.8 506.88 716.8 716.8 622.7968 716.8 506.88a15.36 15.36 0 1 1 30.72 0c0 132.9152-107.7248 240.64-240.64 240.64S266.24 639.7952 266.24 506.88 373.9648 266.24 506.88 266.24z m149.01248 63.77472a21.36064 21.36064 0 0 1 0 42.7008 21.36064 21.36064 0 0 1 0-42.7008z m-40.448-21.7088a21.36064 21.36064 0 0 1-42.68032 0 21.36064 21.36064 0 0 1 42.68032 0z m108.8512 111.616a21.36064 21.36064 0 0 1-42.7008 0 21.36064 21.36064 0 0 1 42.7008 0zM512 1003.52c271.4624 0 491.52-220.0576 491.52-491.52S783.4624 20.48 512 20.48 20.48 240.5376 20.48 512s220.0576 491.52 491.52 491.52z m0 20.48C229.23264 1024 0 794.76736 0 512S229.23264 0 512 0s512 229.23264 512 512-229.23264 512-512 512z" fill="#ffffff" p-id="11611"></path></svg>