<?xml version="1.0" standalone="no"?><!DOCTYPE svg PUBLIC "-//W3C//DTD SVG 1.1//EN" "http://www.w3.org/Graphics/SVG/1.1/DTD/svg11.dtd"><svg t="1524018002378" class="icon" style="" viewBox="0 0 1024 1024" version="1.1" xmlns="http://www.w3.org/2000/svg" p-id="32927" xmlns:xlink="http://www.w3.org/1999/xlink" width="200" height="200"><defs><style type="text/css"></style></defs><path d="M512 1003.52c271.4624 0 491.52-220.0576 491.52-491.52S783.4624 20.48 512 20.48 20.48 240.5376 20.48 512s220.0576 491.52 491.52 491.52z m0 20.48C229.23264 1024 0 794.76736 0 512S229.23264 0 512 0s512 229.23264 512 512-229.23264 512-512 512zM291.84 706.31424h440.32a15.36 15.36 0 1 1 0 30.72h-440.32a15.36 15.36 0 0 1 0-30.72z m51.2-148.02944v91.70944a15.36 15.36 0 1 1-30.72 0V558.2848a15.36 15.36 0 1 1 30.72 0z m92.16-164.29056v256a15.36 15.36 0 1 1-30.72 0v-256a15.36 15.36 0 0 1 30.72 0z m92.16 61.44v194.56a15.36 15.36 0 1 1-30.72 0v-194.56a15.36 15.36 0 0 1 30.72 0z m92.16-163.84v358.4a15.36 15.36 0 1 1-30.72 0v-358.4a15.36 15.36 0 0 1 30.72 0z m92.16 225.28v133.12a15.36 15.36 0 1 1-30.72 0v-133.12a15.36 15.36 0 0 1 30.72 0z" fill="#FFFFFF" p-id="32928"></path></svg>