<?xml version="1.0" standalone="no"?><!DOCTYPE svg PUBLIC "-//W3C//DTD SVG 1.1//EN" "http://www.w3.org/Graphics/SVG/1.1/DTD/svg11.dtd"><svg class="icon" width="200px" height="200.00px" viewBox="0 0 1024 1024" version="1.1" xmlns="http://www.w3.org/2000/svg"><path fill="#ffffff" d="M512 1003.52c271.4624 0 491.52-220.0576 491.52-491.52S783.4624 20.48 512 20.48 20.48 240.5376 20.48 512s220.0576 491.52 491.52 491.52z m0 20.48C229.23264 1024 0 794.76736 0 512S229.23264 0 512 0s512 229.23264 512 512-229.23264 512-512 512z m-16.6912-777.1136a179.85536 179.85536 0 0 1 151.63392 301.6704 138.69056 138.69056 0 0 0-37.1712 94.96576v2.62144a40.96 40.96 0 0 1-40.96 40.96h-106.04544a40.96 40.96 0 0 1-40.96-40.96v-2.58048c0-34.816-12.36992-68.9152-36.352-94.14656a179.34336 179.34336 0 0 1-48.68096-140.82048c7.68-84.00896 74.67008-152.43264 158.53568-161.71008z m3.3792 30.53568c-69.30432 7.65952-124.96896 64.45056-131.33824 133.98016a148.60288 148.60288 0 0 0 40.38656 116.85888c29.04064 30.55616 44.78976 72.00768 44.78976 115.3024v2.58048a10.24 10.24 0 0 0 10.24 10.24h106.04544a10.24 10.24 0 0 0 10.24-10.24v-2.62144c0-43.2128 16.1792-84.74624 45.48608-115.99872a148.39808 148.39808 0 0 0 40.3456-101.94944c0-88.71936-76.86144-158.0032-166.1952-148.15232zM445.44 716.8h133.12a15.36 15.36 0 1 1 0 30.72h-133.12a15.36 15.36 0 1 1 0-30.72z"  /></svg>