<?xml version="1.0" standalone="no"?><!DOCTYPE svg PUBLIC "-//W3C//DTD SVG 1.1//EN" "http://www.w3.org/Graphics/SVG/1.1/DTD/svg11.dtd"><svg class="icon" width="200px" height="200.00px" viewBox="0 0 1024 1024" version="1.1" xmlns="http://www.w3.org/2000/svg"><path d="M512 0a512 512 0 1 0 512 512A512 512 0 0 0 512 0z m66.56 747.52h-133.12a15.36 15.36 0 0 1 0-30.72h133.12a15.36 15.36 0 0 1 0 30.72z m68.4032-199.0656a138.6496 138.6496 0 0 0-37.0688 95.0272v2.6624a40.96 40.96 0 0 1-40.96 40.96H462.848a40.96 40.96 0 0 1-40.96-40.96v-2.6624a136.192 136.192 0 0 0-36.2496-94.208 179.8144 179.8144 0 1 1 261.5296 0z" fill="#FFFFFF" /><path d="M578.56 716.8h-133.12a15.36 15.36 0 0 0 0 30.72h133.12a15.36 15.36 0 0 0 0-30.72zM495.4112 246.9888a179.8144 179.8144 0 0 0-109.7728 302.4896 136.192 136.192 0 0 1 36.2496 94.208v2.6624a40.96 40.96 0 0 0 40.96 40.96h106.0864a40.96 40.96 0 0 0 40.96-40.96v-2.6624a138.6496 138.6496 0 0 1 37.0688-95.0272 179.8144 179.8144 0 0 0-151.552-301.6704z m129.2288 280.576a169.3696 169.3696 0 0 0-45.4656 115.9168v2.6624a10.24 10.24 0 0 1-10.24 10.24H462.848a10.24 10.24 0 0 1-10.24-10.24v-2.6624a166.912 166.912 0 0 0-44.8512-115.3024 149.0944 149.0944 0 1 1 216.8832 0z" fill="#30AE80" /><path d="M498.688 277.504a149.0944 149.0944 0 0 0-90.9312 250.88 166.912 166.912 0 0 1 44.8512 115.3024v2.6624a10.24 10.24 0 0 0 10.24 10.24h106.0864a10.24 10.24 0 0 0 10.24-10.24v-2.6624a169.3696 169.3696 0 0 1 45.4656-115.9168 149.0944 149.0944 0 0 0-125.952-250.0608z" fill="#FFFFFF" /></svg>