<?xml version="1.0" standalone="no"?><!DOCTYPE svg PUBLIC "-//W3C//DTD SVG 1.1//EN" "http://www.w3.org/Graphics/SVG/1.1/DTD/svg11.dtd"><svg t="1522380430917" class="icon" style="" viewBox="0 0 1024 1024" version="1.1" xmlns="http://www.w3.org/2000/svg" p-id="11023" xmlns:xlink="http://www.w3.org/1999/xlink" width="200" height="200"><defs><style type="text/css"></style></defs><path d="M512 512m-512 0a512 512 0 1 0 1024 0 512 512 0 1 0-1024 0Z" fill="#ffffff" p-id="11024"></path><path d="M512 281.6a17.066667 17.066667 0 0 1 17.066667 17.066667v102.4a17.066667 17.066667 0 0 1-34.133334 0v-102.4a17.066667 17.066667 0 0 1 17.066667-17.066667z" fill="#33B887" p-id="11025"></path><path d="M512 725.333333a204.8 204.8 0 0 1-111.104-376.832 17.066667 17.066667 0 1 1 18.602667 28.672 171.690667 171.690667 0 0 0-25.429334 20.138667 170.666667 170.666667 0 1 0 211.797334-19.285333 17.066667 17.066667 0 0 1 18.773333-28.501334 204.8 204.8 0 0 1-112.64 375.466667z" fill="#33B887" p-id="11026"></path></svg>