<?xml version="1.0" standalone="no"?><!DOCTYPE svg PUBLIC "-//W3C//DTD SVG 1.1//EN" "http://www.w3.org/Graphics/SVG/1.1/DTD/svg11.dtd"><svg t="1513921418359" class="icon" style="" viewBox="0 0 1024 1024" version="1.1" xmlns="http://www.w3.org/2000/svg" p-id="11498" xmlns:xlink="http://www.w3.org/1999/xlink" width="200" height="200"><defs><style type="text/css"></style></defs><path d="M512 0C229.23264 0 0 229.23264 0 512s229.23264 512 512 512 512-229.23264 512-512S794.76736 0 512 0z m0 1003.52C240.96768 1003.52 20.48 783.03232 20.48 512S240.96768 20.48 512 20.48s491.52 220.48768 491.52 491.52-220.48768 491.52-491.52 491.52z" fill="#ffffff" p-id="11499"></path><path d="M512 270.336c-133.26336 0-241.664 108.40064-241.664 241.664S378.73664 753.664 512 753.664 753.664 645.26336 753.664 512 645.26336 270.336 512 270.336z m0 461.6192c-121.28256 0-219.9552-98.67264-219.9552-219.9552S390.71744 292.0448 512 292.0448 731.9552 390.71744 731.9552 512 633.28256 731.9552 512 731.9552z" fill="#ffffff" p-id="11500"></path><path d="M622.08 545.91488h-107.52v-117.76a15.36 15.36 0 0 0-30.72 0v133.12a15.36 15.36 0 0 0 15.36 15.36h122.88a15.36 15.36 0 0 0 0-30.72z" fill="#ffffff" p-id="11501"></path></svg>