<?xml version="1.0" standalone="no"?><!DOCTYPE svg PUBLIC "-//W3C//DTD SVG 1.1//EN" "http://www.w3.org/Graphics/SVG/1.1/DTD/svg11.dtd"><svg class="icon" width="200px" height="200.00px" viewBox="0 0 1024 1024" version="1.1" xmlns="http://www.w3.org/2000/svg"><path fill="#ffffff" d="M512 0a512 512 0 1 0 512 512A512 512 0 0 0 512 0z m0 1003.52a491.52 491.52 0 1 1 491.52-491.52 491.52 491.52 0 0 1-491.52 491.52z"  /><path fill="#ffffff" d="M747.52 409.6h-471.04a40.96 40.96 0 0 0-40.96 40.96v143.36a40.96 40.96 0 0 0 40.96 40.96h471.04a40.96 40.96 0 0 0 40.96-40.96v-143.36a40.96 40.96 0 0 0-40.96-40.96z m10.24 184.32a10.24 10.24 0 0 1-10.24 10.24h-471.04a10.24 10.24 0 0 1-10.24-10.24v-143.36a10.24 10.24 0 0 1 10.24-10.24h471.04a10.24 10.24 0 0 1 10.24 10.24z"  /><path fill="#ffffff" d="M670.72 512h-317.44a15.36 15.36 0 0 0 0 30.72h317.44a15.36 15.36 0 0 0 0-30.72z"  /></svg>