<?xml version="1.0" standalone="no"?><!DOCTYPE svg PUBLIC "-//W3C//DTD SVG 1.1//EN" "http://www.w3.org/Graphics/SVG/1.1/DTD/svg11.dtd"><svg t="1522823887276" class="icon" style="" viewBox="0 0 1024 1024" version="1.1" xmlns="http://www.w3.org/2000/svg" p-id="3588" xmlns:xlink="http://www.w3.org/1999/xlink" width="200" height="200"><defs><style type="text/css"></style></defs><path d="M512.113778 99.953778v-28.444445a56.888889 56.888889 0 0 0-35.043556 11.832889l-88.462222 62.008889a486.172444 486.172444 0 0 1-110.478222 57.628445l-84.024889 31.061333c-38.058667 11.776-63.544889 43.975111-63.544889 80.099555v191.715556c0 127.488 66.787556 247.580444 180.280889 324.152889l165.603555 111.786667c10.581333 7.168 23.096889 10.695111 35.555556 10.695111 12.515556 0 25.031111-3.527111 35.555556-10.695111l165.603555-111.786667c113.493333-76.572444 180.280889-196.664889 180.280889-324.152889v-191.715556c0-36.124444-25.486222-68.266667-63.544889-80.099555l-84.024889-31.061333a488.277333 488.277333 0 0 1-110.478222-57.628445L547.100444 83.228444a57.173333 57.173333 0 0 0-34.986666-11.719111v-28.444444 56.888889z m0-56.888889v-28.444445c25.144889 0 49.834667 8.135111 67.697778 22.072889l88.177777 62.008889a431.388444 431.388444 0 0 0 97.621334 50.915556l81.123555 30.094222c61.098667 18.944 103.537778 72.533333 103.537778 134.428444v191.715556c0 146.773333-76.458667 284.387556-205.255111 371.313778l-165.376 111.616c-19.911111 13.596444-43.576889 20.593778-67.640889 20.593778-23.893333 0-47.502222-6.997333-67.356444-20.423112L278.983111 877.226667c-128.796444-86.926222-205.312-224.483556-205.312-371.313778v-191.715556c0-61.895111 42.496-115.484444 100.693333-133.461333l84.081778-31.061333a429.169778 429.169778 0 0 0 97.507556-50.858667L441.969778 38.570667c20.024889-15.701333 44.942222-23.893333 70.144-23.893334v28.444445z m-155.477334 438.613333h310.727112a28.444444 28.444444 0 0 1 28.444444 28.444445v3.754666a28.444444 28.444444 0 0 1-28.444444 28.444445H356.636444a28.444444 28.444444 0 0 1-28.444444-28.444445v-3.754666a28.444444 28.444444 0 0 1 28.444444-28.444445z m185.685334-125.041778v310.727112a28.444444 28.444444 0 0 1-28.444445 28.444444h-3.754666a28.444444 28.444444 0 0 1-28.444445-28.444444V356.636444a28.444444 28.444444 0 0 1 28.444445-28.444444h3.754666a28.444444 28.444444 0 0 1 28.444445 28.444444z" fill="#FFFFFF" p-id="3589"></path></svg>