<?xml version="1.0" standalone="no"?><!DOCTYPE svg PUBLIC "-//W3C//DTD SVG 1.1//EN" "http://www.w3.org/Graphics/SVG/1.1/DTD/svg11.dtd"><svg t="1508481148300" class="icon" style="" viewBox="0 0 1024 1024" version="1.1" xmlns="http://www.w3.org/2000/svg" p-id="2961" xmlns:xlink="http://www.w3.org/1999/xlink" width="200" height="200"><defs><style type="text/css"></style></defs><path d="M512 0a512 512 0 1 0 512 512A512 512 0 0 0 512 0z m0 977.454545a465.454545 465.454545 0 1 1 465.454545-465.454545 465.454545 465.454545 0 0 1-465.454545 465.454545z" fill="#FFAA00" p-id="2962"></path><path d="M756.363636 477.090909h-209.454545v-209.454545a34.909091 34.909091 0 0 0-69.818182 0v209.454545h-209.454545a34.909091 34.909091 0 1 0 0 69.818182h209.454545v209.454545a34.909091 34.909091 0 0 0 69.818182 0v-209.454545h209.454545a34.909091 34.909091 0 0 0 0-69.818182z" fill="#FFAA00" p-id="2963"></path></svg>