<?xml version="1.0" standalone="no"?><!DOCTYPE svg PUBLIC "-//W3C//DTD SVG 1.1//EN" "http://www.w3.org/Graphics/SVG/1.1/DTD/svg11.dtd"><svg t="1511257485379" class="icon" style="" viewBox="0 0 1024 1024" version="1.1" xmlns="http://www.w3.org/2000/svg" p-id="4621" xmlns:xlink="http://www.w3.org/1999/xlink" width="200" height="200"><defs><style type="text/css"></style></defs><path d="M548.020706 289.249882V508.988235l160.88847 166.128941a31.744 31.744 0 0 1-45.537882 44.152471l-169.863529-175.344941a31.744 31.744 0 0 1-8.914824-22.106353v-232.508235a31.744 31.744 0 1 1 63.427765 0zM517.722353 27.828706a31.744 31.744 0 1 1 0 63.427765 433.513412 433.513412 0 1 0 433.513412 433.513411 31.744 31.744 0 1 1 63.427764 0 496.941176 496.941176 0 1 1-496.941176-496.941176z m307.802353 131.674353a44.152471 44.152471 0 1 1-0.120471 88.244706 44.152471 44.152471 0 0 1 0.060236-88.244706z m-83.546353-44.815059a44.152471 44.152471 0 1 1-88.244706-0.120471 44.152471 44.152471 0 0 1 88.244706 0.120471z m224.677647 230.520471a44.152471 44.152471 0 1 1-88.184471-0.120471 44.152471 44.152471 0 0 1 88.244706 0.120471z" fill="#BFBFBF" p-id="4622"></path></svg>