<?xml version="1.0" encoding="utf-8"?>
<!-- Generator: Adobe Illustrator 21.0.0, SVG Export Plug-In . SVG Version: 6.00 Build 0)  -->
<svg version="1.1" id="图层_1" xmlns="http://www.w3.org/2000/svg" xmlns:xlink="http://www.w3.org/1999/xlink" x="0px" y="0px"
	 viewBox="0 0 50 50" style="enable-background:new 0 0 50 50;" xml:space="preserve">
<style type="text/css">
	.st0{fill:#529EF2;}
</style>
<path class="st0" d="M25,0.4C11.7,0.4,0.9,11.2,0.9,24.5s10.8,24,24.1,24s24-10.8,24-24S38.3,0.4,25,0.4z M25,47.6
	c-12.8,0-23.1-10.3-23.1-23.1S12.2,1.3,25,1.3s23.1,10.3,23.1,23.1C48.1,37.2,37.7,47.6,25,47.6z"/>
<g>
	<path class="st0" d="M30.6,26.9c-0.5-0.1-0.9,0.2-1,0.6c-0.5,2.1-1.5,3.3-3,3.7c-0.4,0.1-0.7,0.6-0.6,1c0.1,0.4,0.6,0.7,1,0.6
		c2.1-0.6,3.5-2.3,4.2-4.9C31.3,27.4,31,27,30.6,26.9z"/>
	<path class="st0" d="M27,11.6c-1.2-1.1-2.9-1.1-4.1,0c-5.9,5.6-8.7,10.7-8.7,15.6c0,6,4.9,10.9,10.8,10.9c2.9,0,5.7-1.1,7.7-3.2
		c2-2,3.1-4.8,3-7.6C35.7,22.2,32.9,17.1,27,11.6z M31.6,33.8c-1.8,1.8-4.1,2.8-6.6,2.8c-5.2,0-9.3-4.2-9.3-9.4
		c0-4.5,2.8-9.4,8.2-14.5c0.3-0.3,0.7-0.4,1.1-0.4c0.4,0,0.7,0.1,1,0.4c5.6,5.2,8.3,9.9,8.3,14.6C34.3,29.7,33.4,32.1,31.6,33.8z"/>
</g>
</svg>
