<?xml version="1.0" encoding="utf-8"?>
<!-- Generator: Adobe Illustrator 21.0.0, SVG Export Plug-In . SVG Version: 6.00 Build 0)  -->
<svg version="1.1" id="图层_1" xmlns="http://www.w3.org/2000/svg" xmlns:xlink="http://www.w3.org/1999/xlink" x="0px" y="0px"
	 viewBox="0 0 50 50" style="enable-background:new 0 0 50 50;" xml:space="preserve">
<style type="text/css">
	.st0{fill:#529EF2;}
</style>
<path class="st0" d="M25,0.4C11.7,0.4,0.9,11.2,0.9,24.5s10.8,24,24.1,24s24-10.8,24-24S38.3,0.4,25,0.4z M25,47.6
	c-12.8,0-23.1-10.3-23.1-23.1S12.2,1.3,25,1.3s23.1,10.3,23.1,23.1C48.1,37.2,37.7,47.6,25,47.6z"/>
<path class="st0" d="M26.4,13.6h-2.9L15,35.3h2.7l2.3-6.1h10l2.3,6.1H35L26.4,13.6z M20.7,27.2l4.2-10.9H25L29,27.2H20.7z"/>
</svg>
