<?xml version="1.0" encoding="utf-8"?>
<!-- Generator: Adobe Illustrator 21.0.0, SVG Export Plug-In . SVG Version: 6.00 Build 0)  -->
<svg version="1.1" id="图层_1" xmlns="http://www.w3.org/2000/svg" xmlns:xlink="http://www.w3.org/1999/xlink" x="0px" y="0px"
	 viewBox="0 0 50 50" style="enable-background:new 0 0 50 50;" xml:space="preserve">
<style type="text/css">
	.st0{fill:#fff;}
</style>
<path class="st0" d="M25,0.4C11.7,0.4,0.9,11.2,0.9,24.5s10.8,24,24.1,24s24-10.8,24-24S38.3,0.4,25,0.4z M25,47.6
	c-12.8,0-23.1-10.3-23.1-23.1S12.2,1.3,25,1.3s23.1,10.3,23.1,23.1C48.1,37.2,37.7,47.6,25,47.6z"/>
<g>
	<path class="st0" d="M25,25.9h-1.1v12.3H25c3.4,0,6.1-2.7,6.1-6.1C31.1,28.7,28.4,25.9,25,25.9z M25.2,37v-9.8
		c2.6,0,4.7,2.2,4.7,4.9C29.9,34.8,27.8,36.9,25.2,37z"/>
	<path class="st0" d="M33.2,17.8c-3.4,0-6.1,2.7-6.1,6.1V25h12.2v-1.1C39.3,20.5,36.6,17.8,33.2,17.8z M28.3,23.7
		c0-2.6,2.2-4.7,4.9-4.7c2.7,0,4.8,2.1,4.9,4.7H28.3z"/>
	<path class="st0" d="M25,22.9h1.1V10.6H25c-3.4,0-6.1,2.7-6.1,6.1S21.6,22.9,25,22.9z M24.8,11.8v9.8c-2.6,0-4.7-2.2-4.7-4.9
		S22.2,11.9,24.8,11.8z"/>
	<path class="st0" d="M10.6,24.9h0.1c0,3.4,2.7,6.1,6.1,6.1s6.1-2.7,6.1-6.1v-1.1H10.6V24.9z M21.7,25.1c0,2.6-2.2,4.7-4.9,4.7
		s-4.8-2.1-4.9-4.7H21.7z"/>
</g>
</svg>
