<?xml version="1.0" encoding="utf-8"?>
<!-- Generator: Adobe Illustrator 21.0.0, SVG Export Plug-In . SVG Version: 6.00 Build 0)  -->
<svg version="1.1" id="图层_1" xmlns="http://www.w3.org/2000/svg" xmlns:xlink="http://www.w3.org/1999/xlink" x="0px" y="0px"
	 viewBox="0 0 200 200" style="enable-background:new 0 0 200 200;" xml:space="preserve">
<style type="text/css">
	.st0{fill:#555555;}
</style>
<path class="st0" d="M115.8,100l79-79c4.4-4.4,4.4-11.4,0-15.8c-4.4-4.4-11.4-4.4-15.8,0l-79,79l-79-79c-4.4-4.4-11.4-4.4-15.8,0
	C0.8,9.5,0.8,16.6,5.1,21l79,79l-79,79c-4.4,4.4-4.4,11.4,0,15.8c4.4,4.4,11.4,4.4,15.8,0l79-79l79,79c4.4,4.4,11.4,4.4,15.8,0
	c4.4-4.4,4.4-11.4,0-15.8L115.8,100z"/>
</svg>
