<?xml version="1.0" encoding="utf-8"?>
<!-- Generator: Adobe Illustrator 21.0.0, SVG Export Plug-In . SVG Version: 6.00 Build 0)  -->
<svg version="1.1" id="图层_1" xmlns="http://www.w3.org/2000/svg" xmlns:xlink="http://www.w3.org/1999/xlink" x="0px" y="0px"
	 viewBox="0 0 50 50" style="enable-background:new 0 0 50 50;" xml:space="preserve">
<style type="text/css">
	.st0{fill:rgb( 153, 153, 153);}
</style>
<path class="st0" d="M25,0.4C11.7,0.4,0.9,11.2,0.9,24.5s10.8,24,24.1,24s24-10.8,24-24S38.3,0.4,25,0.4z M25,47.6
	c-12.8,0-23.1-10.3-23.1-23.1S12.2,1.3,25,1.3s23.1,10.3,23.1,23.1C48.1,37.2,37.7,47.6,25,47.6z"/>
<g>
	<polygon class="st0" points="12.1,25.8 18.1,25.8 18.1,24.7 12.1,24.7 12.1,21.2 18.4,21.2 18.4,20.1 10.8,20.1 10.8,30.8 
		18.7,30.8 18.7,29.7 12.1,29.7 	"/>
	<path class="st0" d="M27.1,29.2c-0.6,0.5-1.3,0.7-2.2,0.7c-1.3,0-2.2-0.4-2.9-1.2c-0.6-0.8-0.9-1.8-0.9-3.2s0.3-2.4,0.9-3.2
		c0.7-0.9,1.6-1.3,2.9-1.3c0.8,0,1.5,0.2,2.1,0.6c0.6,0.4,1,1,1.1,1.8h1.2c-0.1-1.1-0.6-1.9-1.4-2.5c-0.8-0.6-1.8-0.9-3-0.9
		c-1.6,0-2.9,0.6-3.8,1.7c-0.8,1-1.2,2.3-1.2,3.9c0,1.6,0.4,2.9,1.2,3.9c0.9,1,2.2,1.5,3.9,1.5c1.1,0,2.1-0.3,3-1s1.4-1.7,1.7-2.9
		h-1.2C28.2,28.1,27.8,28.8,27.1,29.2z"/>
	<path class="st0" d="M39.8,21.5c-0.9-1.1-2.2-1.6-3.8-1.6s-2.9,0.5-3.8,1.6c-0.9,1-1.3,2.3-1.3,4c0,1.6,0.4,2.9,1.3,3.9
		c0.9,1.1,2.2,1.6,3.8,1.6s2.9-0.5,3.8-1.6c0.9-1,1.3-2.3,1.3-3.9C41.1,23.8,40.6,22.5,39.8,21.5z M38.9,28.7
		c-0.7,0.8-1.7,1.2-2.9,1.2s-2.2-0.4-2.9-1.3c-0.7-0.8-1-1.9-1-3.2c0-1.3,0.3-2.4,1-3.2c0.7-0.9,1.7-1.3,2.9-1.3s2.2,0.4,2.9,1.2
		c0.7,0.8,1,1.9,1,3.3C39.9,26.8,39.5,27.9,38.9,28.7z"/>
</g>
</svg>
