<?xml version="1.0" encoding="utf-8"?>
<!-- Generator: Adobe Illustrator 21.0.0, SVG Export Plug-In . SVG Version: 6.00 Build 0)  -->
<svg version="1.1" id="图层_1" xmlns="http://www.w3.org/2000/svg" xmlns:xlink="http://www.w3.org/1999/xlink" x="0px" y="0px"
	 viewBox="0 0 50 50" style="enable-background:new 0 0 50 50;" xml:space="preserve">
<style type="text/css">
	.st0{fill:#FFFFFF;}
	.st1{fill:#529EF2;}
</style>
<circle class="st0" cx="25" cy="24.5" r="24"/>
<g>
	<polygon class="st1" points="11.2,24.8 17.2,24.8 17.2,23.7 11.2,23.7 11.2,20.2 17.5,20.2 17.5,19.1 9.9,19.1 9.9,29.8 17.8,29.8 
		17.8,28.7 11.2,28.7 	"/>
	<path class="st1" d="M26.2,28.2c-0.6,0.5-1.3,0.7-2.2,0.7c-1.3,0-2.2-0.4-2.9-1.2c-0.6-0.8-0.9-1.8-0.9-3.2s0.3-2.4,0.9-3.2
		c0.7-0.9,1.6-1.3,2.9-1.3c0.8,0,1.5,0.2,2.1,0.6s1,1,1.1,1.8h1.2c-0.1-1.1-0.6-1.9-1.4-2.5S25.2,19,24,19c-1.6,0-2.9,0.6-3.8,1.7
		c-0.8,1-1.2,2.3-1.2,3.9s0.4,2.9,1.2,3.9c0.9,1,2.2,1.5,3.9,1.5c1.1,0,2.1-0.3,3-1s1.4-1.7,1.7-2.9h-1.2
		C27.3,27.1,26.9,27.8,26.2,28.2z"/>
	<path class="st1" d="M38.8,20.5c-0.9-1.1-2.2-1.6-3.8-1.6s-2.9,0.5-3.8,1.6c-0.9,1-1.3,2.3-1.3,4c0,1.6,0.4,2.9,1.3,3.9
		c0.9,1.1,2.2,1.6,3.8,1.6s2.9-0.5,3.8-1.6c0.9-1,1.3-2.3,1.3-3.9C40.1,22.8,39.6,21.5,38.8,20.5z M38,27.7
		c-0.7,0.8-1.7,1.2-2.9,1.2s-2.2-0.4-2.9-1.3c-0.7-0.8-1-1.9-1-3.2c0-1.3,0.3-2.4,1-3.2c0.7-0.9,1.7-1.3,2.9-1.3s2.2,0.4,2.9,1.2
		c0.7,0.8,1,1.9,1,3.3C39,25.8,38.5,26.9,38,27.7z"/>
</g>
</svg>
