<?xml version="1.0" encoding="utf-8"?>
<!-- Generator: Adobe Illustrator 21.0.0, SVG Export Plug-In . SVG Version: 6.00 Build 0)  -->
<svg version="1.1" id="图层_1" xmlns="http://www.w3.org/2000/svg" xmlns:xlink="http://www.w3.org/1999/xlink" x="0px" y="0px"
	 viewBox="0 0 50 50" style="enable-background:new 0 0 50 50;" xml:space="preserve">
<style type="text/css">
	.st0{fill:rgb( 153, 153, 153);}
</style>
<g>
	<path class="st0" d="M25,0.4C11.7,0.4,0.9,11.2,0.9,24.5s10.8,24,24.1,24s24-10.8,24-24S38.3,0.4,25,0.4z M25,47.6
		c-12.8,0-23.1-10.3-23.1-23.1S12.2,1.3,25,1.3s23.1,10.3,23.1,23.1C48.1,37.2,37.7,47.6,25,47.6z"/>
	<path class="st0" d="M14.1,23.5h-1.3c-0.5,0-1,0.5-1,1s0.5,1,1,1h1.3c0.5,0,1-0.5,1-1S14.6,23.5,14.1,23.5z"/>
	<path class="st0" d="M24.9,14.6c0.6,0,1-0.5,1-1v-1.3c0-0.5-0.5-1-1-1s-1,0.5-1,1v1.3C23.9,14.1,24.4,14.6,24.9,14.6z"/>
	<path class="st0" d="M16.6,31.5l-1,0.9c-0.4,0.4-0.4,1,0,1.4c0.4,0.4,1,0.4,1.4,0l1-0.9c0.4-0.4,0.4-1,0-1.4
		C17.6,31,17,31,16.6,31.5z"/>
	<path class="st0" d="M16.6,17.5c0.4,0.3,1,0.3,1.4,0c0.4-0.4,0.4-1,0-1.4l-0.9-0.9c-0.4-0.4-1-0.4-1.4,0c-0.4,0.4-0.4,1,0,1.4
		L16.6,17.5z"/>
	<path class="st0" d="M33.3,31.5c-0.4-0.4-1-0.4-1.4,0c-0.4,0.4-0.4,1,0,1.4l0.9,0.9c0.4,0.4,1,0.4,1.4,0c0.4-0.4,0.4-1,0-1.4
		L33.3,31.5z"/>
	<path class="st0" d="M32.8,15.1L31.9,16c-0.4,0.4-0.4,1,0,1.4c0.4,0.4,1,0.4,1.4,0l0.9-0.9c0.4-0.4,0.4-1,0-1.4
		C33.8,14.8,33.2,14.8,32.8,15.1z"/>
	<path class="st0" d="M37.1,23.5h-1.3c-0.5,0-1,0.5-1,1s0.5,1,1,1h1.3c0.5,0,1-0.5,1-1S37.6,23.5,37.1,23.5z"/>
	<path class="st0" d="M24.9,34.2c-0.5,0-1,0.5-1,1v1.3c0,0.5,0.5,1,1,1s1-0.5,1-1v-1.3C25.9,34.8,25.4,34.2,24.9,34.2z"/>
	<path class="st0" d="M24.9,16.2c-4.5,0-8.2,3.7-8.2,8.2s3.7,8.2,8.2,8.2s8.2-3.7,8.2-8.2S29.5,16.2,24.9,16.2z M24.9,31
		c-3.6,0-6.6-2.9-6.6-6.6c0-3.7,2.9-6.6,6.6-6.6c3.7,0,6.6,2.9,6.6,6.6C31.5,28.1,28.5,31,24.9,31z"/>
</g>
</svg>
