<?xml version="1.0" standalone="no"?><!DOCTYPE svg PUBLIC "-//W3C//DTD SVG 1.1//EN" "http://www.w3.org/Graphics/SVG/1.1/DTD/svg11.dtd"><svg t="1508222756557" class="icon" style="" viewBox="0 0 1024 1024" version="1.1" xmlns="http://www.w3.org/2000/svg" p-id="7459" xmlns:xlink="http://www.w3.org/1999/xlink" width="200" height="200"><defs><style type="text/css"></style></defs><path d="M512.341333 192.768c-176.213333 0-319.658667 143.146667-319.658666 319.701333 0 176.213333 143.104 319.658667 319.658666 319.658667 176.213333 0 319.658667-143.104 319.658667-319.658667 0-176.213333-143.104-319.701333-319.658667-319.701333z m0 575.445333a256 256 0 0 1-255.744-255.744 256 256 0 0 1 255.744-255.744 256 256 0 0 1 255.744 255.744 256 256 0 0 1-255.744 255.744z m-421.973333-294.101333c21.205333 0 38.4 17.792 38.4 38.357333a38.741333 38.741333 0 0 1-38.4 38.357334H39.210667a38.784 38.784 0 0 1-38.357334-38.4c0-21.162667 17.792-38.314667 38.4-38.314667h51.114667z m96.426667-232.917333l-36.138667-36.138667a38.741333 38.741333 0 0 1 0-54.272 38.741333 38.741333 0 0 1 54.272 0l36.138667 36.181333c15.018667 14.976 14.549333 39.68 0 54.229334a38.741333 38.741333 0 0 1-54.229334 0z m0 542.506666a38.784 38.784 0 0 1 54.272 0 38.741333 38.741333 0 0 1 0 54.272l-36.138667 36.138667a38.741333 38.741333 0 0 1-54.272 0 38.741333 38.741333 0 0 1 0-54.229333l36.181333-36.181334z m325.546666-654.848a38.741333 38.741333 0 0 1-38.4-38.4V39.381333c0-21.162667 17.834667-38.357333 38.4-38.357333 21.162667 0 38.357333 17.792 38.357334 38.4V90.453333c0 21.162667-17.792 38.357333-38.4 38.357334z m0 767.189334c21.162667 0 38.357333 17.792 38.357334 38.4v51.114666c0 21.205333-17.792 38.4-38.4 38.4a38.741333 38.741333 0 0 1-38.314667-38.4v-51.114666c0-21.205333 17.792-38.4 38.357333-38.4z m307.413334-745.258667a38.741333 38.741333 0 0 1 54.229333 0 38.741333 38.741333 0 0 1 0 54.272l-36.138667 36.138667a38.784 38.784 0 0 1-54.272 0 38.741333 38.741333 0 0 1 0-54.229334l36.181334-36.181333z m18.090666 632.917333l36.138667 36.181334c14.976 14.933333 14.549333 39.68 0 54.229333a38.741333 38.741333 0 0 1-54.229333 0l-36.181334-36.138667a38.784 38.784 0 0 1 0-54.272 38.741333 38.741333 0 0 1 54.272 0z m147.626667-309.589333c21.162667 0 38.357333 17.792 38.357333 38.357333a38.741333 38.741333 0 0 1-38.4 38.357334h-51.114666a38.784 38.784 0 0 1-38.4-38.4c0-21.162667 17.792-38.314667 38.4-38.314667h51.114666z" fill="#999999" p-id="7460"></path></svg>