<?xml version="1.0" standalone="no"?><!DOCTYPE svg PUBLIC "-//W3C//DTD SVG 1.1//EN" "http://www.w3.org/Graphics/SVG/1.1/DTD/svg11.dtd"><svg t="1513921862405" class="icon" style="" viewBox="0 0 1024 1024" version="1.1" xmlns="http://www.w3.org/2000/svg" p-id="12228" xmlns:xlink="http://www.w3.org/1999/xlink" width="200" height="200"><defs><style type="text/css"></style></defs><path d="M512 20.48A491.52 491.52 0 1 0 1003.52 512 491.52 491.52 0 0 0 512 20.48z m-15.36 268.083a15.36 15.36 0 0 1 30.72 0v133.12a15.36 15.36 0 0 1-30.72 0zM512 750.797A230.4 230.4 0 0 1 387.072 327.68a15.36 15.36 0 0 1 16.794 25.805 199.68 199.68 0 1 0 218.112 0 15.36 15.36 0 1 1 16.793-25.805A230.4 230.4 0 0 1 512 750.797z" fill="#ffffff" p-id="12229"></path><path d="M512 0a512 512 0 1 0 512 512A512 512 0 0 0 512 0z m0 1003.52A491.52 491.52 0 1 1 1003.52 512 491.52 491.52 0 0 1 512 1003.52z" fill="#ffffff" p-id="12230"></path><path d="M638.771 327.68a15.36 15.36 0 1 0-16.998 25.6 199.475 199.475 0 1 1-218.112 0 15.36 15.36 0 0 0-16.589-25.6 230.4 230.4 0 1 0 251.7 0z" fill="rgb(92, 174, 255)" p-id="12231"></path><path d="M512 437.043a15.36 15.36 0 0 0 15.36-15.36v-133.12a15.36 15.36 0 0 0-30.72 0v133.12a15.36 15.36 0 0 0 15.36 15.36z" fill="rgb(92, 174, 255)" p-id="12232"></path></svg>