<?xml version="1.0" encoding="utf-8"?>
<!-- Generator: Adobe Illustrator 21.0.0, SVG Export Plug-In . SVG Version: 6.00 Build 0)  -->
<svg version="1.1" id="图层_1" xmlns="http://www.w3.org/2000/svg" xmlns:xlink="http://www.w3.org/1999/xlink" x="0px" y="0px"
	 viewBox="0 0 50 50" style="enable-background:new 0 0 50 50;" xml:space="preserve">
<style type="text/css">
	.st0{fill:#fff;opacity:0.5;}
</style>
<g>
	<path class="st0" d="M25,0.4C11.7,0.4,0.9,11.2,0.9,24.5s10.8,24,24.1,24s24-10.8,24-24S38.3,0.4,25,0.4z M25,47.6
		c-12.8,0-23.1-10.3-23.1-23.1S12.2,1.3,25,1.3s23.1,10.3,23.1,23.1C48.1,37.2,37.7,47.6,25,47.6z"/>
	<path class="st0" d="M35.9,25.5l-3.6,2.1l-5.6-3.2l5.6-3.2l3.5,2c0.1,0.1,0.2,0.1,0.4,0.1c0.3,0,0.5-0.1,0.6-0.4
		c0.2-0.3,0.1-0.8-0.3-1l-2.8-1.6l2.4-1.4c0.4-0.2,0.5-0.6,0.3-1c-0.2-0.3-0.7-0.5-1-0.3L33,19.1v-3.3c0-0.4-0.3-0.7-0.7-0.7
		c-0.4,0-0.7,0.3-0.7,0.7l0.1,4.1L26,23.2v-6.6l3.5-2c0.4-0.2,0.5-0.6,0.3-1c-0.2-0.3-0.7-0.5-1-0.3L25.9,15v-3.3
		c0-0.4-0.3-0.7-0.7-0.7c-0.4,0-0.7,0.3-0.7,0.7V15l-2.9-1.6c-0.4-0.2-0.8-0.1-1,0.3c-0.2,0.3-0.1,0.8,0.3,1l3.6,2v6.5l-5.8-3.3v-4
		c0-0.4-0.3-0.7-0.7-0.7s-0.7,0.3-0.7,0.7V19l-3.1-1.7c-0.4-0.2-0.8-0.1-1,0.3c-0.2,0.3-0.1,0.8,0.3,1l3.1,1.8L13.5,22
		c-0.3,0.2-0.5,0.7-0.3,1c0.1,0.2,0.4,0.4,0.6,0.4c0.1,0,0.3,0,0.4-0.1l3.6-2.1l5.9,3.3l-5.9,3.3l-3.5-2c-0.4-0.2-0.8-0.1-1,0.3
		c-0.2,0.3-0.1,0.8,0.3,1l2.8,1.6l-2.5,1.4c-0.4,0.2-0.5,0.6-0.3,1c0.1,0.2,0.4,0.4,0.6,0.4c0.1,0,0.3,0,0.4-0.1l2.5-1.4v3.3
		c0,0.4,0.3,0.7,0.7,0.7c0.4,0,0.7-0.3,0.7-0.7l-0.1-4.1l5.8-3.3v6.5l-3.5,2c-0.4,0.2-0.5,0.6-0.3,1c0.1,0.2,0.4,0.4,0.6,0.4
		c0.1,0,0.3,0,0.4-0.1l2.8-1.6v3.3c0,0.4,0.3,0.7,0.7,0.7c0.4,0,0.7-0.3,0.7-0.7v-3.3l2.9,1.6c0.1,0.1,0.2,0.1,0.4,0.1
		c0.3,0,0.5-0.1,0.6-0.4c0.2-0.3,0.1-0.8-0.3-1l-3.6-2v-6.6l5.7,3.3v4c0,0.4,0.3,0.7,0.7,0.7s0.7-0.3,0.7-0.7v-3.2l2.5,1.4
		c0.1,0.1,0.2,0.1,0.4,0.1c0.3,0,0.5-0.1,0.6-0.4c0.2-0.3,0.1-0.8-0.3-1l-2.5-1.5l2.9-1.7c0.7-0.2,0.8-0.6,0.6-1
		C36.7,25.5,36.2,25.3,35.9,25.5z"/>
</g>
</svg>
