<?xml version="1.0" standalone="no"?><!DOCTYPE svg PUBLIC "-//W3C//DTD SVG 1.1//EN" "http://www.w3.org/Graphics/SVG/1.1/DTD/svg11.dtd"><svg t="1508221040623" class="icon" style="" viewBox="0 0 1024 1024" version="1.1" xmlns="http://www.w3.org/2000/svg" p-id="6879" xmlns:xlink="http://www.w3.org/1999/xlink" width="200" height="200"><defs><style type="text/css"></style></defs><path d="M106.666667 512c0 221.866667 183.466667 405.333333 405.333333 405.333333 102.4 0 200.533333-38.4 277.333333-106.666666 38.4-38.4 72.533333-81.066667 93.866667-128-51.2 29.866667-115.2 46.933333-174.933333 46.933333-196.266667 0-354.133333-157.866667-354.133334-354.133333 0-102.4 46.933333-200.533333 119.466667-264.533334C264.533333 128 106.666667 302.933333 106.666667 512zM512 981.333333C251.733333 981.333333 42.666667 772.266667 42.666667 512S251.733333 42.666667 512 42.666667c38.4 0 76.8 4.266667 115.2 12.8 8.533333 4.266667 17.066667 8.533333 17.066667 17.066666s-4.266667 17.066667-12.8 21.333334c-128 34.133333-213.333333 149.333333-213.333334 281.6 0 162.133333 132.266667 290.133333 290.133334 290.133333 98.133333 0 187.733333-46.933333 238.933333-128 4.266667-8.533333 12.8-8.533333 21.333333-8.533333 8.533333 4.266667 12.8 12.8 12.8 21.333333-8.533333 115.2-64 226.133333-149.333333 307.2-85.333333 81.066667-200.533333 123.733333-320 123.733333z m251.733333-401.066666h-153.6c-12.8 0-25.6-8.533333-29.866666-21.333334-4.266667-12.8-4.266667-25.6 8.533333-34.133333l98.133333-98.133333h-72.533333c-17.066667 0-34.133333-12.8-34.133333-34.133334s12.8-34.133333 34.133333-34.133333h149.333333c12.8 0 25.6 8.533333 29.866667 21.333333s4.266667 25.6-8.533333 34.133334L686.933333 512h76.8c17.066667 0 34.133333 12.8 34.133334 34.133333 0 17.066667-17.066667 34.133333-34.133334 34.133334z m170.666667-153.6h-102.4c-8.533333 0-17.066667-4.266667-21.333333-17.066667-4.266667-8.533333 0-21.333333 4.266666-25.6l59.733334-59.733333h-38.4c-12.8 0-25.6-12.8-25.6-25.6s12.8-25.6 25.6-25.6h98.133333c8.533333 0 17.066667 4.266667 21.333333 17.066666 4.266667 8.533333 0 21.333333-4.266666 25.6l-59.733334 59.733334h42.666667c12.8 0 25.6 12.8 25.6 25.6s-8.533333 25.6-25.6 25.6z" fill="#57A7FF" p-id="6880"></path></svg>