<?xml version="1.0" standalone="no"?><!DOCTYPE svg PUBLIC "-//W3C//DTD SVG 1.1//EN" "http://www.w3.org/Graphics/SVG/1.1/DTD/svg11.dtd"><svg t="1508221037075" class="icon" style="" viewBox="0 0 1024 1024" version="1.1" xmlns="http://www.w3.org/2000/svg" p-id="6767" xmlns:xlink="http://www.w3.org/1999/xlink" width="200" height="200"><defs><style type="text/css"></style></defs><path d="M542.549333 274.432v221.610667l162.346667 167.637333a32 32 0 1 1-45.994667 44.501333l-171.306666-176.896a32 32 0 0 1-9.045334-22.272V274.432a32 32 0 0 1 64 0zM512 10.666667a32 32 0 1 1 0 64C270.506667 74.666667 74.666667 270.506667 74.666667 512S270.506667 949.333333 512 949.333333 949.333333 753.493333 949.333333 512a32 32 0 1 1 64 0c0 276.906667-224.426667 501.333333-501.333333 501.333333S10.666667 788.906667 10.666667 512 235.093333 10.666667 512 10.666667z m310.442667 132.864a44.501333 44.501333 0 0 1 0 88.96 44.501333 44.501333 0 0 1 0-88.96z m-84.266667-45.226667a44.501333 44.501333 0 0 1-88.917333 0 44.501333 44.501333 0 0 1 88.917333 0z m226.773333 232.533333a44.501333 44.501333 0 0 1-88.96 0 44.501333 44.501333 0 0 1 88.96 0z" fill="#57A7FF" p-id="6768"></path></svg>