<?xml version="1.0" encoding="utf-8"?>
<!-- Generator: Adobe Illustrator 21.0.0, SVG Export Plug-In . SVG Version: 6.00 Build 0)  -->
<svg version="1.1" id="图层_1" xmlns="http://www.w3.org/2000/svg" xmlns:xlink="http://www.w3.org/1999/xlink" x="0px" y="0px"
	 viewBox="0 0 50 50" style="enable-background:new 0 0 50 50;" xml:space="preserve">
<style type="text/css">
	.st0{fill:rgb( 153 ,153, 153);;}
</style>
<path class="st0" d="M25,0.4C11.7,0.4,0.9,11.2,0.9,24.5s10.8,24,24.1,24s24-10.8,24-24S38.3,0.4,25,0.4z M25,47.6
	c-12.8,0-23.1-10.3-23.1-23.1S12.2,1.3,25,1.3s23.1,10.3,23.1,23.1C48.1,37.2,37.7,47.6,25,47.6z"/>
<g>
	<path class="st0" d="M15.6,26.1L26,26.2c0.3,0,0.6-0.3,0.6-0.6c0-0.2-0.1-0.3-0.2-0.4C26.3,25.1,26.1,25,26,25l-10.4-0.1l7.3-7.3
		c0.2-0.2,0.2-0.6,0-0.9c-0.2-0.2-0.6-0.2-0.9,0l-8.2,9c-0.1,0.1-0.1,0.1-0.1,0.1s0,0,0,0.1c0,0,0,0,0,0.1l8.3,8.3
		c0.2,0.2,0.6,0.2,0.9,0c0.2-0.2,0.2-0.6,0-0.9L15.6,26.1z"/>
	<path class="st0" d="M13.8,25.7C13.7,25.7,13.7,25.9,13.8,25.7L13.8,25.7z"/>
	<path class="st0" d="M29.5,38.1l-1.3-0.2c0.6-0.4,1.1-0.9,1.6-1.4c6-6,6-15.9-0.1-22c-0.5-0.5-1.1-1-1.6-1.4l1.2-0.4
		c0.4-0.1,0.6-0.5,0.5-0.9c0-0.1-0.1-0.2-0.2-0.3c-0.2-0.2-0.4-0.2-0.7-0.2L26.5,12c-0.2,0-0.4,0-0.5,0.1c-0.2,0.2-0.4,0.3-0.4,0.5
		c-0.1,0.1-0.1,0.3-0.1,0.5L26,16c0.1,0.4,0.4,0.6,0.8,0.6c0.4-0.1,0.6-0.4,0.6-0.8L27,14c0.6,0.4,1.2,0.9,1.7,1.5
		c5.5,5.5,5.6,14.5,0.1,20c-0.6,0.6-1.2,1.1-1.8,1.5l0.2-1.4c0-0.2,0-0.4-0.2-0.6c-0.1-0.1-0.2-0.2-0.4-0.2
		c-0.4-0.1-0.7,0.2-0.8,0.6l-0.5,2.8c0,0.3,0.1,0.5,0.3,0.7c0.1,0.2,0.3,0.3,0.5,0.3l3.2,0.3c0.4,0,0.7-0.2,0.8-0.6
		c0-0.2-0.1-0.4-0.2-0.6C29.8,38.2,29.6,38.1,29.5,38.1z"/>
</g>
</svg>
