<?xml version="1.0" encoding="utf-8"?>
<!-- Generator: Adobe Illustrator 21.0.0, SVG Export Plug-In . SVG Version: 6.00 Build 0)  -->
<svg version="1.1" id="图层_1" xmlns="http://www.w3.org/2000/svg" xmlns:xlink="http://www.w3.org/1999/xlink" x="0px" y="0px"
	 viewBox="0 0 50 50" style="enable-background:new 0 0 50 50;" xml:space="preserve">
<style type="text/css">
	.st0{fill:#FFFFFF;}
	.st1{fill:#529EF2;}
</style>
<circle class="st0" cx="25" cy="24.5" r="24"/>
<g>
	<path class="st1" d="M15.6,26.2L26,26.3c0.3,0,0.6-0.3,0.6-0.6c0-0.2-0.1-0.3-0.2-0.4s-0.3-0.2-0.4-0.2L15.6,25l7.3-7.3
		c0.2-0.2,0.2-0.6,0-0.9c-0.2-0.2-0.6-0.2-0.9,0l-8.2,9c-0.1,0.1-0.1,0.1-0.1,0.1s0,0,0,0.1c0,0,0,0,0,0.1l8.3,8.3
		c0.2,0.2,0.6,0.2,0.9,0c0.2-0.2,0.2-0.6,0-0.9L15.6,26.2z"/>
	<path class="st1" d="M13.8,25.8C13.7,25.8,13.7,26,13.8,25.8L13.8,25.8z"/>
	<path class="st1" d="M29.5,38.2L28.2,38c0.6-0.4,1.1-0.9,1.6-1.4c6-6,6-15.9-0.1-22c-0.5-0.5-1.1-1-1.6-1.4l1.2-0.4
		c0.4-0.1,0.6-0.5,0.5-0.9c0-0.1-0.1-0.2-0.2-0.3c-0.2-0.2-0.4-0.2-0.7-0.2l-2.4,0.7c-0.2,0-0.4,0-0.5,0.1c-0.2,0.2-0.4,0.3-0.4,0.5
		c-0.1,0.1-0.1,0.3-0.1,0.5l0.5,2.9c0.1,0.4,0.4,0.6,0.8,0.6c0.4-0.1,0.6-0.4,0.6-0.8L27,14.1c0.6,0.4,1.2,0.9,1.7,1.5
		c5.5,5.5,5.6,14.5,0.1,20c-0.6,0.6-1.2,1.1-1.8,1.5l0.2-1.4c0-0.2,0-0.4-0.2-0.6c-0.1-0.1-0.2-0.2-0.4-0.2
		c-0.4-0.1-0.7,0.2-0.8,0.6l-0.5,2.8c0,0.3,0.1,0.5,0.3,0.7c0.1,0.2,0.3,0.3,0.5,0.3l3.2,0.3c0.4,0,0.7-0.2,0.8-0.6
		c0-0.2-0.1-0.4-0.2-0.6C29.8,38.3,29.6,38.2,29.5,38.2z"/>
</g>
</svg>
