<?xml version="1.0" standalone="no"?><!DOCTYPE svg PUBLIC "-//W3C//DTD SVG 1.1//EN" "http://www.w3.org/Graphics/SVG/1.1/DTD/svg11.dtd"><svg t="1508222750348" class="icon" style="" viewBox="0 0 1117 1024" version="1.1" xmlns="http://www.w3.org/2000/svg" p-id="7227" xmlns:xlink="http://www.w3.org/1999/xlink" width="218.1640625" height="200"><defs><style type="text/css"></style></defs><path d="M48.174545 360.727273a34.909091 34.909091 0 0 1 0-69.818182H465.454545a104.727273 104.727273 0 1 0-102.725818-125.300364 34.909091 34.909091 0 1 1-68.468363-13.591272A174.545455 174.545455 0 1 1 465.454545 360.727273H48.174545z m529.31491 527.127272a34.909091 34.909091 0 0 1 66.885818-20.014545A104.773818 104.773818 0 1 0 744.727273 733.090909H48.174545a34.909091 34.909091 0 0 1 0-69.818182H744.727273a174.545455 174.545455 0 1 1-167.237818 224.581818zM141.265455 546.909091a34.909091 34.909091 0 0 1 0-69.818182H907.636364a128 128 0 1 0-126.138182-149.690182 34.909091 34.909091 0 1 1-68.887273-11.729454 197.818182 197.818182 0 1 1 195.025455 231.237818H141.265455z" fill="#999999" p-id="7228"></path></svg>