<?xml version="1.0" encoding="utf-8"?>
<!-- Generator: Adobe Illustrator 21.0.0, SVG Export Plug-In . SVG Version: 6.00 Build 0)  -->
<svg version="1.1" id="图层_1" xmlns="http://www.w3.org/2000/svg" xmlns:xlink="http://www.w3.org/1999/xlink" x="0px" y="0px"
	 viewBox="0 0 50 50" style="enable-background:new 0 0 50 50;" xml:space="preserve">
<style type="text/css">
	.st0{fill:#fff;}
</style>
<path class="st0" d="M25,0.4C11.7,0.4,0.9,11.2,0.9,24.5s10.8,24,24.1,24s24-10.8,24-24S38.3,0.4,25,0.4z M25,47.6
	c-12.8,0-23.1-10.3-23.1-23.1S12.2,1.3,25,1.3s23.1,10.3,23.1,23.1C48.1,37.2,37.7,47.6,25,47.6z"/>
<g>
	<path class="st0" d="M33.2,13.5c-2.5,0-4.6,1.7-5.1,4.1c-0.1,0.5,0.2,0.9,0.6,1.1c0.5,0.1,0.9-0.2,1-0.6c0.4-1.7,1.8-2.8,3.5-2.8
		c2,0,3.6,1.7,3.6,3.7c0,2.1-1.6,3.7-3.6,3.7H12.2c-0.5,0-0.8,0.4-0.8,0.9s0.4,0.9,0.8,0.9h20.9c2.9,0,5.3-2.5,5.3-5.5
		S36,13.5,33.2,13.5z"/>
	<path class="st0" d="M31,26.4H14.2v0.1c-0.5,0-0.9,0.4-0.9,0.8c0,0.5,0.4,0.8,0.9,0.8h16.6c1.6,0,2.8,1.3,2.8,2.8s-1.3,2.8-2.8,2.8
		c-1.1,0-2.1-0.7-2.6-1.7c-0.2-0.4-0.7-0.6-1.1-0.4c-0.4,0.2-0.6,0.7-0.4,1.1c0.7,1.6,2.4,2.7,4.2,2.7c2.5,0,4.5-2,4.5-4.5
		S33.5,26.4,31,26.4z"/>
	<path class="st0" d="M27.4,30.3c0-0.4-0.3-0.8-0.8-0.8h-9.3c-0.5,0-0.8,0.4-0.8,0.8c0,0.4,0.3,0.8,0.8,0.8h9.3
		C27,31.1,27.4,30.7,27.4,30.3z"/>
</g>
</svg>
