<?xml version="1.0" standalone="no"?><!DOCTYPE svg PUBLIC "-//W3C//DTD SVG 1.1//EN" "http://www.w3.org/Graphics/SVG/1.1/DTD/svg11.dtd"><svg t="1501144232880" class="icon" style="" viewBox="0 0 1024 1024" version="1.1" xmlns="http://www.w3.org/2000/svg" p-id="2365" xmlns:xlink="http://www.w3.org/1999/xlink" width="200" height="200"><defs><style type="text/css"></style></defs><path d="M513.344 6.976C238.336 6.976 15.36 230.336 15.36 505.856c0 275.584 222.976 498.816 497.984 498.816s497.984-223.232 497.984-498.816c0-275.52-223.04-498.88-497.984-498.88z m198.848 670.144c7.872 7.744 7.872 20.352 0 28.224s-20.416 7.872-28.288 0L527.616 548.992l-156.224 156.416a19.84 19.84 0 0 1-28.288 0 19.84 19.84 0 0 1 0-28.224l156.224-156.544L343.04 364.032a19.84 19.84 0 0 1 0-28.288 19.84 19.84 0 0 1 28.288 0L527.616 492.16l156.224-156.416a19.84 19.84 0 0 1 28.288 0 19.84 19.84 0 0 1 0 28.288l-156.16 156.544 156.224 156.544z" fill="#d2d2d2" p-id="2366"></path></svg>