<?xml version="1.0" standalone="no"?><!DOCTYPE svg PUBLIC "-//W3C//DTD SVG 1.1//EN" "http://www.w3.org/Graphics/SVG/1.1/DTD/svg11.dtd"><svg t="1501144225804" class="icon" style="" viewBox="0 0 1024 1024" version="1.1" xmlns="http://www.w3.org/2000/svg" p-id="2248" xmlns:xlink="http://www.w3.org/1999/xlink" width="200" height="200"><defs><style type="text/css"></style></defs><path d="M513.344 6.976a497.28 497.28 0 1 0 0 994.688 497.28 497.28 0 1 0 0-994.688z m331.392 319.488l-395.712 395.648v0.128h-0.128c-0.256 0.384-0.576 0.512-0.896 0.896l-1.216 1.152-1.024 0.768-1.28 0.896a7.488 7.488 0 0 1-1.28 0.768 3.328 3.328 0 0 1-1.152 0.64c-0.448 0.384-0.96 0.512-1.408 0.64l-1.088 0.64-1.6 0.512-1.024 0.384c-0.576-0.064-1.088 0.192-1.728 0.32-0.256 0-0.576 0.128-0.896 0.256l-1.984 0.256h-0.704a20.032 20.032 0 0 1-2.688 0.256 17.408 17.408 0 0 1-2.688-0.256h-0.64l-2.048-0.256a1.6 1.6 0 0 0-0.832-0.256l-1.856-0.512c-0.256 0-0.576-0.256-0.896-0.256l-1.664-0.64-0.96-0.384-1.536-0.768-1.024-0.64-1.344-0.768-0.96-0.768a15.04 15.04 0 0 0-1.344-1.024c-0.32-0.256-0.576-0.64-0.896-0.768l-1.152-1.152-227.072-224.576a28.352 28.352 0 1 1 39.936-40.32L428.8 662.144l375.808-375.808a28.416 28.416 0 0 1 40.128 40.128z" fill="#0050b4" p-id="2249"></path></svg>