<?xml version="1.0" standalone="no"?><!DOCTYPE svg PUBLIC "-//W3C//DTD SVG 1.1//EN" "http://www.w3.org/Graphics/SVG/1.1/DTD/svg11.dtd"><svg t="1500452838312" class="icon" style="" viewBox="0 0 1024 1024" version="1.1" xmlns="http://www.w3.org/2000/svg" p-id="1192" xmlns:xlink="http://www.w3.org/1999/xlink" width="200" height="200"><defs><style type="text/css"></style></defs><path d="M511.616 1006.464c-273.28 0-495.616-222.208-495.616-495.232S238.336 16 511.616 16c273.344 0 495.616 222.208 495.616 495.232s-222.272 495.232-495.616 495.232z m0-979.456C244.416 27.008 27.008 244.224 27.008 511.232s217.344 484.224 484.608 484.224c267.2 0 484.608-217.216 484.608-484.224S778.816 27.008 511.616 27.008z" fill="#A3A3A3" p-id="1193"></path><path d="M584.448 420.16c18.24 11.584 32.576 26.944 42.944 45.76 10.56 18.88 15.808 39.296 15.808 61.184 0 35.392-12.864 65.664-38.72 90.56a128.64 128.64 0 0 1-93.12 37.376 127.808 127.808 0 0 1-92.864-37.376 121.728 121.728 0 0 1-38.336-90.56c0-21.888 5.184-42.304 15.68-61.184 10.432-18.816 24.704-34.176 42.88-45.76v-61.184a184.192 184.192 0 0 0-82.688 66.496 174.4 174.4 0 0 0-31.616 101.632c0 50.24 18.304 93.184 54.848 128.704a182.144 182.144 0 0 0 132.032 53.504c51.584 0 95.616-17.792 132.416-53.504 36.736-35.584 55.104-78.528 55.104-128.704 0-37.312-10.496-71.232-31.68-101.632a183.68 183.68 0 0 0-82.752-66.496v61.184zM480.64 525.888V313.152h62.016v212.8H480.64z" fill="#11b281" p-id="1194"></path></svg>