<?xml version="1.0" standalone="no"?><!DOCTYPE svg PUBLIC "-//W3C//DTD SVG 1.1//EN" "http://www.w3.org/Graphics/SVG/1.1/DTD/svg11.dtd"><svg t="1500452895192" class="icon" style="" viewBox="0 0 1024 1024" version="1.1" xmlns="http://www.w3.org/2000/svg" p-id="10244" xmlns:xlink="http://www.w3.org/1999/xlink" width="200" height="200"><defs><style type="text/css"></style></defs><path d="M512 31.289c-267.378 0-483.556 216.178-483.556 483.555C28.444 782.222 244.622 998.4 512 998.4s483.556-216.178 483.556-483.556C995.556 247.467 779.378 31.29 512 31.29z m-8.533 278.755c0-8.533 5.689-14.222 14.222-14.222s14.222 5.69 14.222 14.222V543.29c0 8.533-5.689 14.222-14.222 14.222s-14.222-5.689-14.222-14.222V310.044z m14.222 418.134c-110.933 0-201.956-91.022-201.956-201.956 0-88.178 54.045-164.978 136.534-193.422 5.689-2.844 14.222 0 17.066 8.533 2.845 5.69 0 14.223-8.533 17.067-71.111 25.6-119.467 91.022-119.467 167.822 0 96.711 79.645 176.356 176.356 176.356s176.355-79.645 176.355-176.356c0-76.8-48.355-145.066-119.466-167.822-5.69-2.844-11.378-8.533-8.534-17.067 2.845-5.689 8.534-11.377 17.067-8.533 82.489 28.444 136.533 105.244 136.533 193.422 0 110.934-91.022 201.956-201.955 201.956z" fill="#11b281" p-id="10245"></path></svg>