<?xml version="1.0" encoding="UTF-8"?>
<svg width="21px" height="21px" viewBox="0 0 21 21" version="1.1" xmlns="http://www.w3.org/2000/svg" xmlns:xlink="http://www.w3.org/1999/xlink">
    <!-- Generator: Sketch 61.2 (89653) - https://sketch.com -->
    <title>形状</title>
    <desc>Created with Sketch.</desc>
    <g id="添加到Siri" stroke="none" stroke-width="1" fill="none" fill-rule="evenodd">
        <g id="Siri-列表" transform="translate(-341.000000, -32.000000)" fill="#2198FF" fill-rule="nonzero">
            <path d="M351.436837,52.4566455 C348.765983,52.4566455 346.255102,51.4169172 344.366454,49.5293495 C342.477805,47.6417817 341.436422,45.1289059 341.436422,42.4562731 C341.436422,39.7836404 342.477154,37.2722087 344.365802,35.3839414 C346.25445,33.4956742 348.764882,32.4566455 351.436186,32.4566455 C354.107489,32.4566455 356.617921,33.4963737 358.506345,35.3839414 C360.394768,37.2715092 361.436422,39.7843625 361.436422,42.4553931 C361.436422,45.1264238 360.395869,47.6402022 358.50639,49.5284469 C356.61691,51.4166916 354.107759,52.4566455 351.43686,52.4566455 L351.436837,52.4566455 Z M351.436837,33.8909144 C349.146045,33.8909144 346.993074,34.7820778 345.374342,36.4005861 C343.75561,38.0190945 342.865011,40.1687943 342.865011,42.4562957 C342.865011,44.7437971 343.755812,46.8946252 345.373668,48.5111478 C346.991524,50.1276705 349.144719,51.0208195 351.436186,51.0208195 C353.727652,51.0208195 355.879949,50.1298818 357.498681,48.5111478 C359.117413,46.8924138 360.008012,44.7429171 360.007339,42.4554157 C360.006664,40.1679369 359.116515,38.0177632 357.498681,36.4012856 C355.880847,34.7848081 353.726978,33.8909144 351.436837,33.8909144 Z M356.437191,41.7388566 L352.151132,41.7388566 L352.151132,37.4338158 C352.134058,37.0375602 351.800387,36.7302539 351.405903,36.7474255 C351.035344,36.7635365 350.738605,37.0616139 350.722543,37.4338158 L350.722543,41.738834 L346.436731,41.738834 C346.042247,41.7560056 345.736297,42.0911565 345.75337,42.4873896 C345.769433,42.8595689 346.066172,43.1576237 346.436753,43.1737574 L350.72252,43.1737574 L350.72252,47.4787982 C350.739616,47.8750313 351.073288,48.1823375 351.467771,48.1651885 C351.838308,48.1490549 352.135047,47.8509775 352.151109,47.4787756 L352.151109,43.1737799 L356.437146,43.1737799 C356.83163,43.1909741 357.165302,42.8836678 357.182375,42.4874122 C357.199493,42.0911565 356.893521,41.7560056 356.499015,41.7388566 L356.499015,41.7388566 C356.478409,41.7379565 356.457774,41.7379565 356.437169,41.7388566 L356.437191,41.7388566 Z" id="形状"></path>
        </g>
    </g>
</svg>