<?xml version="1.0" encoding="utf-8"?>
<!-- Generator: Adobe Illustrator 21.0.0, SVG Export Plug-In . SVG Version: 6.00 Build 0)  -->
<svg version="1.1" id="图层_1" xmlns="http://www.w3.org/2000/svg" xmlns:xlink="http://www.w3.org/1999/xlink" x="0px" y="0px"
	 viewBox="0 0 200 200" style="enable-background:new 0 0 200 200;" xml:space="preserve">
<style type="text/css">
	.st0{fill:#42B0BD;}
</style>
<path class="st0" d="M100,100c2.5,0,4.4-2,4.4-4.4V64.4c0-2.5-2-4.4-4.4-4.4c-2.5,0-4.4,2-4.4,4.4l0,0v31.1
	C95.6,98,97.5,100,100,100z"/>
<path class="st0" d="M117.8,68.9v10.6c6.8,5.3,11.1,13.5,11.1,22.7c0,16-12.9,28.9-28.9,28.9s-28.9-12.9-28.9-28.9
	c0-9.2,4.4-17.5,11.1-22.7V68.9c-11.9,6.4-20,18.9-20,33.3c0,20.9,16.9,37.8,37.8,37.8s37.8-16.9,37.8-37.8
	C137.8,87.8,129.7,75.3,117.8,68.9z"/>
</svg>
