<?xml version="1.0" standalone="no"?><!DOCTYPE svg PUBLIC "-//W3C//DTD SVG 1.1//EN" "http://www.w3.org/Graphics/SVG/1.1/DTD/svg11.dtd"><svg t="1501144245593" class="icon" style="" viewBox="0 0 1024 1024" version="1.1" xmlns="http://www.w3.org/2000/svg" p-id="2835" xmlns:xlink="http://www.w3.org/1999/xlink" width="200" height="200"><defs><style type="text/css"></style></defs><path d="M512 986.752A474.752 474.752 0 1 1 512 37.248a474.752 474.752 0 0 1 0 949.504zM512 96.64a415.36 415.36 0 1 0 0 830.72A415.36 415.36 0 0 0 512 96.64z m42.112 415.552l125.76 125.696a29.696 29.696 0 0 1-41.984 41.984L512.128 554.176l-126.528 126.592a29.888 29.888 0 1 1-42.304-42.24l126.592-126.592-125.76-125.824a29.696 29.696 0 0 1 41.984-41.984l125.76 125.76L639.36 342.4a29.888 29.888 0 0 1 42.24 42.304L554.112 512.192z" fill="#0050b4" p-id="2836"></path></svg>